<mxfile host="app.diagrams.net" modified="2022-12-23T02:28:13.605Z" agent="5.0 (X11; Linux x86_64) AppleWebKit/537.36 (KHTML, like Gecko) Chrome/77.0.3865.120 Safari/537.36" etag="F6w3LNHVinKHM8F0onKb" version="20.7.4" type="github">
  <diagram id="X3frUOIJ4UyBZ5zGNv1c" name="acl-lab">
    <mxGraphModel dx="878" dy="523" grid="1" gridSize="10" guides="1" tooltips="1" connect="1" arrows="1" fold="1" page="1" pageScale="1" pageWidth="827" pageHeight="1169" math="0" shadow="0">
      <root>
        <mxCell id="0" />
        <mxCell id="1" parent="0" />
        <mxCell id="YIrWhIE3qQ4BIBY2tq_o-36" value="&lt;font style=&quot;font-size: 18px;&quot;&gt;Host&lt;/font&gt;" style="shape=umlFrame;whiteSpace=wrap;html=1;fontSize=12;width=90;height=40;gradientColor=none;fillColor=default;" parent="1" vertex="1">
          <mxGeometry x="199" y="130" width="430" height="260" as="geometry" />
        </mxCell>
        <mxCell id="YIrWhIE3qQ4BIBY2tq_o-2" value="&lt;font style=&quot;font-size: 18px;&quot;&gt;VPP&lt;/font&gt;" style="ellipse;whiteSpace=wrap;html=1;aspect=fixed;" parent="1" vertex="1">
          <mxGeometry x="300" y="160" width="80" height="80" as="geometry" />
        </mxCell>
        <mxCell id="YIrWhIE3qQ4BIBY2tq_o-3" value="" style="ellipse;whiteSpace=wrap;html=1;aspect=fixed;fillColor=#dae8fc;strokeColor=#6c8ebf;" parent="1" vertex="1">
          <mxGeometry x="337" y="242" width="6" height="6" as="geometry" />
        </mxCell>
        <mxCell id="YIrWhIE3qQ4BIBY2tq_o-10" style="rounded=0;orthogonalLoop=1;jettySize=auto;html=1;exitX=0.5;exitY=0;exitDx=0;exitDy=0;fontSize=18;endArrow=none;endFill=0;fillColor=#dae8fc;strokeColor=#6c8ebf;" parent="1" source="YIrWhIE3qQ4BIBY2tq_o-4" target="YIrWhIE3qQ4BIBY2tq_o-3" edge="1">
          <mxGeometry relative="1" as="geometry">
            <mxPoint x="340" y="250" as="targetPoint" />
          </mxGeometry>
        </mxCell>
        <mxCell id="YIrWhIE3qQ4BIBY2tq_o-4" value="" style="ellipse;whiteSpace=wrap;html=1;aspect=fixed;fillColor=#dae8fc;strokeColor=#6c8ebf;" parent="1" vertex="1">
          <mxGeometry x="337" y="350" width="6" height="6" as="geometry" />
        </mxCell>
        <mxCell id="YIrWhIE3qQ4BIBY2tq_o-19" value="&lt;font style=&quot;font-size: 12px;&quot;&gt;vpp1host:10.10.1.1/24&lt;/font&gt;" style="text;html=1;strokeColor=none;fillColor=none;align=center;verticalAlign=middle;whiteSpace=wrap;rounded=0;fontSize=18;" parent="1" vertex="1">
          <mxGeometry x="380" y="326" width="60" height="30" as="geometry" />
        </mxCell>
        <mxCell id="YIrWhIE3qQ4BIBY2tq_o-20" value="&lt;font style=&quot;font-size: 12px;&quot;&gt;vpp1out:10.10.1.2/24&lt;/font&gt;" style="text;html=1;strokeColor=none;fillColor=none;align=center;verticalAlign=middle;whiteSpace=wrap;rounded=0;fontSize=18;" parent="1" vertex="1">
          <mxGeometry x="380" y="230" width="60" height="30" as="geometry" />
        </mxCell>
        <mxCell id="rNDPbL1ABQbkdlFyfxvr-2" value="&amp;nbsp;" style="text;html=1;strokeColor=none;fillColor=none;align=center;verticalAlign=middle;whiteSpace=wrap;rounded=0;" vertex="1" parent="1">
          <mxGeometry x="277" y="424" width="60" height="30" as="geometry" />
        </mxCell>
        <mxCell id="rNDPbL1ABQbkdlFyfxvr-10" value="" style="group" vertex="1" connectable="0" parent="1">
          <mxGeometry x="500" y="330" width="110" height="50" as="geometry" />
        </mxCell>
        <mxCell id="rNDPbL1ABQbkdlFyfxvr-9" value="" style="rounded=0;whiteSpace=wrap;html=1;fontColor=#6C8EBF;" vertex="1" parent="rNDPbL1ABQbkdlFyfxvr-10">
          <mxGeometry x="36.67" y="7.8125" width="57.08" height="42.1875" as="geometry" />
        </mxCell>
        <mxCell id="rNDPbL1ABQbkdlFyfxvr-8" value="" style="group" vertex="1" connectable="0" parent="rNDPbL1ABQbkdlFyfxvr-10">
          <mxGeometry x="49.021739130434774" y="13.28125" width="50.21739130434782" height="23.4375" as="geometry" />
        </mxCell>
        <mxCell id="rNDPbL1ABQbkdlFyfxvr-6" value="" style="ellipse;whiteSpace=wrap;html=1;aspect=fixed;fillColor=#dae8fc;strokeColor=#6c8ebf;" vertex="1" parent="rNDPbL1ABQbkdlFyfxvr-8">
          <mxGeometry y="4.6875" width="1.401154891304348" height="1.401154891304348" as="geometry" />
        </mxCell>
        <mxCell id="rNDPbL1ABQbkdlFyfxvr-7" value="&lt;font color=&quot;#6c8ebf&quot;&gt;veth&lt;/font&gt;" style="text;html=1;strokeColor=none;fillColor=none;align=left;verticalAlign=middle;whiteSpace=wrap;rounded=0;fontColor=#000000;" vertex="1" parent="rNDPbL1ABQbkdlFyfxvr-8">
          <mxGeometry x="6.577999999999999" width="22.755333333333333" height="11.71875" as="geometry" />
        </mxCell>
      </root>
    </mxGraphModel>
  </diagram>
</mxfile>
